# xmcd
#
# Track frame offsets: 
#        150
#        10986
#        22652
#        34739
#        45344
#        56082
#        63365
#        75831
#        82353
#        100584
#        110013
#        129733
#        147775
#        164922
#        171901
#        185687
#        203917
#        223637
#        241679
#
# Disc length: 3450 seconds
#
# Revision: 0
# Processed by: cddbd v1.5.2PL0 Copyright (c) Steve Scherf et al.
# Submitted via: ExactAudioCopy v1.3
#
DISCID=030d7813
DTITLE=Various Artist - 劇場版プリパラ み～んなでかがやけ! キラリン☆スターライブ! SONG COLLECTI
DTITLE=ON
DYEAR=2017
DGENRE=
TTITLE0=SoLaMi SMILE (茜屋日海夏, 芹澤優, 久保田未夢) - トライアングル・スター (劇場サイズ)
TTITLE1=SoLaMi SMILE (茜屋日海夏, 芹澤優, 久保田未夢) - Ready Smile!! (劇場サイズ)
TTITLE2=Tricolore (斎賀みつき, 赤﨑千夏, 佐藤あずさ) - Mon chouchou (劇場サイズ)
TTITLE3=DressingPafé (山北早紀, 澁谷梓希, 若井友希) - ラン♪ for ジャンピン! (劇場サイズ)
TTITLE4=Gaarmageddon (牧野由依, 渡部優衣, 真田アサミ) - アメイジング・キャッスル (劇場サイズ)
TTITLE5=NonSugar (田中美海, 大森日雅, 山下七海) - シュガーレス×フレンド (劇場サイズ)
TTITLE6=UCCHARI BIG-BANGS (上田麗奈, 山本希望, 赤崎千夏) - 愛ドルを取り戻せ! (劇場サイズ)
TTITLE7=TRiANGLE (田中美海) - かりすま～とGIRL☆Yeah! (劇場サイズ)
TTITLE8=北条そふぃ (久保田未夢) - Red Flash Revolution
TTITLE9=らぁら&なお(茜屋日海夏&南條愛乃) - Make it! (劇場サイズ)
TTITLE10=Tricolore (斎賀みつき, 赤﨑千夏, 佐藤あずさ) - Neo Dimension Go!!
TTITLE11=南みれぃ (芹澤優) - TRIal HEART ～恋の違反チケット～
TTITLE12=スーパープリパラ☆オールアイドル's - ぷりぱら☆ララン
TTITLE13=らぁら&ガァルル(茜屋日海夏&真田アサミ) - プリパラ☆ダンシング!!! (劇場サイズ)
TTITLE14=わーすた - Just be yourself (劇場サイズ)
TTITLE15=北条そふぃ (久保田未夢) - Red Flash Revolution [Instrumental]
TTITLE16=Tricolore (斎賀みつき, 赤﨑千夏, 佐藤あずさ) - Neo Dimension Go!! [Instrume
TTITLE16=ntal]
TTITLE17=南みれぃ (芹澤優) - TRIal HEART ～恋の違反チケット～ [Instrumental]
TTITLE18=スーパープリパラ☆オールアイドル's - ぷりぱら☆ララン [Instrumental]
EXTD=
EXTT0=
EXTT1=
EXTT2=
EXTT3=
EXTT4=
EXTT5=
EXTT6=
EXTT7=
EXTT8=
EXTT9=
EXTT10=
EXTT11=
EXTT12=
EXTT13=
EXTT14=
EXTT15=
EXTT16=
EXTT17=
EXTT18=
PLAYORDER=
